<svg width="1339" height="649" viewBox="0 0 1339 649" fill="none" xmlns="http://www.w3.org/2000/svg">
<rect width="1440" height="649" fill="#FF0000"/>
<mask id="mask0_4001_2022" style="mask-type:alpha" maskUnits="userSpaceOnUse" x="0" y="0" width="1440" height="649">
<rect x="0.5" y="0.5" width="1439" height="648" fill="#FF0000" stroke="#FF4948"/>
</mask>
<g mask="url(#mask0_4001_2022)">
<path d="M379.323 983C310.656 893.306 255.664 796.616 222.705 687.83C197.142 603.456 167.795 483.579 215.287 399.44C237.872 359.427 297.112 341.659 339.691 337.354C425.051 328.724 504.301 375.815 573.028 420.629C655.094 474.142 727.345 548.332 794.921 618.752C804.983 629.237 815.776 645.398 828.406 653.291C832.36 655.762 824.522 615.286 823.956 612.607C798.111 490.39 778.372 371.022 781.357 245.18C782.752 186.37 789.994 130.218 831.161 85.4107C859.581 54.4784 896.58 35.3257 936.703 24.3848C1232.3 -56.2197 1484.54 224.303 1664.05 415.756C1716.25 471.426 1771.9 525.856 1819.61 585.484C1824.39 591.454 1815.95 570.6 1813.25 563.447C1787.9 496.236 1757.78 430.679 1729.96 364.477C1683.69 254.357 1643.07 143.167 1613.19 27.3513C1590.62 -60.1258 1564.78 -159.128 1586.91 -249.808C1618.37 -378.727 1770.61 -380.538 1878.95 -387.116C2042.67 -397.057 2205.17 -366.912 2360.04 -314.224C2503.63 -265.372 2646.86 -196.995 2775 -115.466" stroke="#FF4948" stroke-width="300" stroke-linecap="round" stroke-linejoin="round"/>
</g>
</svg>
