<svg width="1440" height="620" viewBox="0 0 1440 620" fill="none" xmlns="http://www.w3.org/2000/svg">
<rect width="1440" height="620" fill="#FF0000"/>
<mask id="mask0_152_5039" style="mask-type:alpha" maskUnits="userSpaceOnUse" x="0" y="0" width="1440" height="620">
<rect x="-0.5" y="0.5" width="1439" height="619" transform="matrix(-1 0 0 1 1439 0)" fill="#FF0000" stroke="#FF4948"/>
</mask>
<g mask="url(#mask0_152_5039)">
<path d="M1434.68 1046.69C1503.34 961.007 1558.34 868.638 1591.3 764.712C1616.86 684.109 1646.21 569.588 1598.71 489.209C1576.13 450.985 1516.89 434.011 1474.31 429.898C1388.95 421.653 1309.7 466.64 1240.97 509.452C1158.91 560.573 1086.65 631.449 1019.08 698.721C1009.02 708.738 998.224 724.177 985.594 731.717C981.64 734.077 989.478 695.411 990.044 692.851C1015.89 576.095 1035.63 462.061 1032.64 341.842C1031.25 285.66 1024.01 232.017 982.839 189.212C954.419 159.662 917.42 141.365 877.297 130.913C581.696 53.9103 329.464 321.899 149.947 504.796C97.7471 557.978 42.0994 609.976 -5.61139 666.94C-10.3881 672.643 -1.95167 652.721 0.746647 645.888C26.0991 581.68 56.2171 519.052 84.0358 455.809C130.309 350.609 170.926 244.387 200.81 133.747C223.382 50.1787 249.217 -44.4 227.09 -131.028C195.631 -254.186 43.3855 -255.916 -64.9522 -262.2C-228.668 -271.697 -391.172 -242.899 -546.038 -192.566C-689.627 -145.896 -832.861 -80.5747 -961 -2.68887" stroke="#FF4948" stroke-width="300" stroke-linecap="round" stroke-linejoin="round"/>
</g>
</svg>
