<svg width="1439" height="582" viewBox="0 0 1439 582" fill="none" xmlns="http://www.w3.org/2000/svg">
<mask id="mask0_4025_2025" style="mask-type:alpha" maskUnits="userSpaceOnUse" x="-1" y="0" width="1440" height="582">
<rect x="-0.499268" y="0.5" width="1439" height="581" fill="#297FCA" stroke="#FF4948"/>
</mask>
<g mask="url(#mask0_4025_2025)">
<path d="M260.894 1005C211.638 940.671 172.191 871.325 148.548 793.303C130.211 732.79 109.16 646.815 143.227 586.47C159.428 557.773 201.922 545.03 232.466 541.942C293.696 535.752 350.544 569.526 399.844 601.667C458.712 640.046 510.539 693.256 559.013 743.761C566.231 751.281 573.973 762.872 583.033 768.532C585.869 770.304 580.247 741.275 579.841 739.353C561.302 651.699 547.143 566.089 549.284 475.835C550.284 433.656 555.479 393.384 585.009 361.248C605.395 339.063 631.936 325.327 660.717 317.48C872.759 259.67 1053.69 460.862 1182.46 598.172C1219.91 638.098 1259.83 677.136 1294.05 719.901C1297.48 724.183 1291.42 709.226 1289.49 704.096C1271.3 655.892 1249.7 608.875 1229.74 561.395C1196.55 482.417 1167.42 402.671 1145.98 319.608C1129.79 256.869 1111.25 185.864 1127.13 120.829C1149.69 28.3675 1258.9 27.0688 1336.62 22.351C1454.05 15.2216 1570.62 36.8413 1681.71 74.6293C1784.71 109.666 1887.46 158.706 1979.37 217.179" stroke="#FF4948" stroke-width="300" stroke-linecap="round" stroke-linejoin="round"/>
</g>
</svg>
